M48
METRIC,LZ,000.000
;FILE_FORMAT=3:3
;TYPE=PLATED
;Layer: PTH_Through
;EasyEDA v6.4.31, 2022-02-22 11:53:35
;0e17b504a1c74eaf9c4f321eb8a460b9,d16b5419f4934f6baf9a23abf8230603,10
;Gerber Generator version 0.2
;Holesize 1 = 0.305 mm
T01C0.305
;Holesize 2 = 0.701 mm
T02C0.701
;Holesize 3 = 0.798 mm
T03C0.798
;Holesize 4 = 0.900 mm
T04C0.900
;Holesize 5 = 1.000 mm
T05C1.000
;Holesize 6 = 1.016 mm
T06C1.016
;Holesize 7 = 1.524 mm
T07C1.524
%
G05
G90
T01
X041910Y044704
X036830Y045339
X055499Y052959
X056769Y054229
X029337Y079502
X029337Y068707
X030607Y061341
X031369Y058801
X047371Y057404
X042291Y057404
X039497Y057404
X036068Y077978
X032258Y076200
X027813Y071755
X025146Y069088
X026289Y069215
X028702Y071628
X032004Y075184
X040767Y078740
X042291Y046736
X026289Y055372
X032131Y055245
X036830Y060071
X039624Y062484
X046990Y071247
X025654Y061468
X029972Y075819
X031877Y076962
X034798Y078359
T02
X065659Y053482
X065659Y051482
X065659Y049482
X065659Y047482
X065659Y045482
X065659Y043482
X065659Y041482
X065659Y039482
T03
X016463Y074549
X018463Y074549
X020462Y074549
X022464Y074549
X024463Y074549
X026464Y074549
X016463Y066929
X018463Y066929
X020462Y066929
X022464Y066929
X024463Y066929
X026464Y066929
X016463Y059309
X018463Y059309
X020462Y059309
X022464Y059309
X024463Y059309
X026464Y059309
X016463Y051689
X018463Y051689
X020462Y051689
X022464Y051689
X024463Y051689
X026464Y051689
T04
X061722Y047371
X054102Y047371
X061722Y043371
X054102Y043371
X061722Y039370
X054102Y039370
T05
X033020Y066675
X035560Y066675
X038100Y066675
X040640Y066675
X043180Y066675
X045720Y066675
X048260Y066675
X050800Y066675
X050800Y074295
X048260Y074295
X045720Y074295
X043180Y074295
X040640Y074295
X038100Y074295
X035560Y074295
X033020Y074295
X033020Y051689
X035560Y051689
X038100Y051689
X040640Y051689
X043180Y051689
X045720Y051689
X048260Y051689
X050800Y051689
X050800Y059309
X048260Y059309
X045720Y059309
X043180Y059309
X040640Y059309
X038100Y059309
X035560Y059309
X033020Y059309
T06
X069743Y074124
X015350Y080239
X017890Y080239
X020430Y080239
X022970Y080239
X025510Y080239
X028050Y080239
X015350Y082779
X017890Y082779
X020430Y082779
X022970Y082779
X025510Y082779
X028050Y082779
X030590Y080239
X030590Y082779
X033130Y080239
X035670Y080239
X038210Y080239
X040750Y080239
X043290Y080239
X045830Y080239
X033130Y082779
X035670Y082779
X038210Y082779
X040750Y082779
X043290Y082779
X045830Y082779
X048370Y080239
X048370Y082779
X050910Y080239
X053450Y080239
X055990Y080239
X058530Y080239
X061070Y080239
X063610Y080239
X050910Y082779
X053450Y082779
X055990Y082779
X058530Y082779
X061070Y082779
X063610Y082779
X067103Y076664
X069743Y076664
X067203Y074124
T07
X017018Y042291
X017018Y034925
X048387Y034925
X048387Y042291
M30
