G04 Layer: BottomLayer*
G04 EasyEDA v6.4.31, 2022-02-22 11:53:35*
G04 0e17b504a1c74eaf9c4f321eb8a460b9,d16b5419f4934f6baf9a23abf8230603,10*
G04 Gerber Generator version 0.2*
G04 Scale: 100 percent, Rotated: No, Reflected: No *
G04 Dimensions in millimeters *
G04 leading zeros omitted , absolute positions ,4 integer and 5 decimal *
%FSLAX45Y45*%
%MOMM*%

%ADD10C,0.2540*%
%ADD11C,0.2032*%
%ADD12C,0.6010*%
%ADD13C,0.6096*%
%ADD14C,1.4148*%
%ADD16C,1.5000*%
%ADD17C,1.8796*%
%ADD18C,1.6000*%
%ADD20C,1.1000*%

%LPD*%
D11*
X4371108Y3519746D02*
G01*
X4445000Y3325784D01*
X4371108Y3519746D02*
G01*
X4297217Y3325784D01*
X4417291Y3390437D02*
G01*
X4324926Y3390437D01*
X4097713Y3473564D02*
G01*
X4106948Y3492037D01*
X4125422Y3510511D01*
X4143895Y3519746D01*
X4180840Y3519746D01*
X4199313Y3510511D01*
X4217784Y3492037D01*
X4227022Y3473564D01*
X4236257Y3445855D01*
X4236257Y3399675D01*
X4227022Y3371964D01*
X4217784Y3353493D01*
X4199313Y3335020D01*
X4180840Y3325784D01*
X4143895Y3325784D01*
X4125422Y3335020D01*
X4106948Y3353493D01*
X4097713Y3371964D01*
X4036753Y3519746D02*
G01*
X4036753Y3325784D01*
X4036753Y3519746D02*
G01*
X3916679Y3519746D01*
X4036753Y3427384D02*
G01*
X3962862Y3427384D01*
X4036753Y3325784D02*
G01*
X3916679Y3325784D01*
X3855720Y3519746D02*
G01*
X3855720Y3325784D01*
X3683924Y3455093D02*
G01*
X3683924Y3325784D01*
X3683924Y3427384D02*
G01*
X3702395Y3445855D01*
X3720868Y3455093D01*
X3748577Y3455093D01*
X3767051Y3445855D01*
X3785524Y3427384D01*
X3794759Y3399675D01*
X3794759Y3381202D01*
X3785524Y3353493D01*
X3767051Y3335020D01*
X3748577Y3325784D01*
X3720868Y3325784D01*
X3702395Y3335020D01*
X3683924Y3353493D01*
X3622964Y3519746D02*
G01*
X3622964Y3325784D01*
X3622964Y3427384D02*
G01*
X3604491Y3445855D01*
X3586017Y3455093D01*
X3558308Y3455093D01*
X3539835Y3445855D01*
X3521364Y3427384D01*
X3512126Y3399675D01*
X3512126Y3381202D01*
X3521364Y3353493D01*
X3539835Y3335020D01*
X3558308Y3325784D01*
X3586017Y3325784D01*
X3604491Y3335020D01*
X3622964Y3353493D01*
D10*
X1701800Y4229100D02*
G01*
X2070100Y4597400D01*
X4914900Y4597400D01*
X5080000Y4762500D01*
X5080000Y5168900D01*
X4826000Y5168900D02*
G01*
X5080000Y5422900D01*
X5524500Y5422900D01*
X5562600Y5461000D01*
X5562600Y7620000D01*
X5689600Y7747000D01*
X5829300Y7747000D01*
X6106922Y8023860D01*
X4572000Y5168900D02*
G01*
X4064000Y4660900D01*
X1828800Y4660900D01*
X1646301Y4843398D01*
X1646301Y5168900D01*
X3810000Y5168900D02*
G01*
X3352800Y4711700D01*
X2921000Y4711700D01*
X2646425Y4986273D01*
X2646425Y5168900D01*
X4572000Y5930900D02*
G01*
X4572000Y5613400D01*
X4267200Y5308600D01*
X3162300Y5308600D01*
X2997200Y5473700D01*
X1854200Y5473700D01*
X1646301Y5681598D01*
X1646301Y5930900D01*
X3810000Y5930900D02*
G01*
X3810000Y5588000D01*
X3594100Y5372100D01*
X3187700Y5372100D01*
X3035300Y5524500D01*
X2794000Y5524500D01*
X2646425Y5672073D01*
X2646425Y5930900D01*
X4572000Y7429500D02*
G01*
X4572000Y6946900D01*
X4406900Y6781800D01*
X3175000Y6781800D01*
X2959100Y6997700D01*
X1765300Y6997700D01*
X1646173Y7116826D01*
X1646173Y7454900D01*
X3810000Y7429500D02*
G01*
X3810000Y7048500D01*
X3619500Y6858000D01*
X3200400Y6858000D01*
X2984500Y7073900D01*
X2755900Y7073900D01*
X2646425Y7183373D01*
X2646425Y7454900D01*
X2446274Y7454900D02*
G01*
X2268474Y7632700D01*
X1714500Y7632700D01*
X1535023Y7812176D01*
X1535023Y8023860D01*
X4191000Y4470400D02*
G01*
X4965700Y4470400D01*
X5613400Y5118100D01*
X5613400Y7581900D01*
X5727700Y7696200D01*
X5842000Y7696200D01*
X6032500Y7886700D01*
X6172200Y7886700D01*
X6235700Y7950200D01*
X6235700Y8166100D01*
X6123940Y8277860D01*
X6106922Y8277860D01*
X3683000Y4533900D02*
G01*
X4940300Y4533900D01*
X5549900Y5143500D01*
X5549900Y5295900D01*
X5676900Y5422900D02*
G01*
X5676900Y7543800D01*
X5765800Y7632700D01*
X5867400Y7632700D01*
X6057900Y7823200D01*
X6350000Y7823200D01*
X6489700Y7962900D01*
X6489700Y8216900D01*
X6428740Y8277860D01*
X6361023Y8277860D01*
X2805023Y8277860D02*
G01*
X2933700Y8149183D01*
X2933700Y7950200D01*
X2933700Y6870700D02*
G01*
X2933700Y6718300D01*
X3124200Y6527800D01*
X3454400Y6527800D01*
X3556000Y6629400D01*
X3556000Y6667500D01*
X3810000Y6667500D02*
G01*
X3810000Y6261100D01*
X3721100Y6172200D01*
X3251200Y6172200D01*
X3124200Y6299200D01*
X2832100Y6299200D01*
X2646425Y6484873D01*
X2646425Y6692900D01*
X4572000Y6667500D02*
G01*
X4559300Y6654800D01*
X4559300Y6311900D01*
X4368800Y6121400D01*
X3200400Y6121400D01*
X3086100Y6235700D01*
X1879600Y6235700D01*
X1646173Y6469126D01*
X1646173Y6692900D01*
X3060700Y6134100D02*
G01*
X3124200Y6070600D01*
X4686300Y6070600D01*
X4826000Y5930900D01*
X3136900Y5880100D02*
G01*
X3136900Y5702300D01*
X3200400Y5638800D01*
X3441700Y5638800D01*
X3556000Y5753100D01*
X3556000Y5930900D01*
X5080000Y5930900D02*
G01*
X4889500Y5740400D01*
X4737100Y5740400D01*
X4229100Y5740400D02*
G01*
X3949700Y5740400D01*
X2296927Y8277857D02*
G01*
X2425700Y8149084D01*
X2425700Y7874000D01*
X2489200Y7810500D01*
X3238500Y7810500D01*
X3378200Y7670800D01*
X1534921Y8277860D02*
G01*
X1663700Y8149081D01*
X1663700Y7785100D01*
X1752600Y7696200D01*
X2260600Y7696200D01*
X2324100Y7759700D01*
X3213100Y7759700D01*
X3302000Y7670800D01*
X3302000Y7429500D01*
X4329023Y8277860D02*
G01*
X4204563Y8153400D01*
X3721100Y8153400D01*
X3695700Y8128000D01*
X3695700Y7886700D01*
X3606800Y7797800D01*
X2514600Y6908800D02*
G01*
X2262126Y6908800D01*
X2046226Y6692900D01*
X2246375Y6692900D02*
G01*
X2386075Y6832600D01*
X2552700Y6832600D01*
X2628900Y6908800D01*
X2628900Y6921500D01*
X2870200Y7162800D02*
G01*
X3200400Y7493000D01*
X3200400Y7518400D01*
X3219450Y7626350D02*
G01*
X2774950Y7181850D01*
X4076700Y7874000D02*
G01*
X4203700Y8001000D01*
X4203700Y8077200D01*
X4279900Y8153400D01*
X4457700Y8153400D01*
X4582922Y8277860D01*
X4229100Y4673600D02*
G01*
X4267200Y4673600D01*
X4699000Y5105400D01*
X4699000Y5207000D01*
X5016500Y5524500D01*
X5499100Y5524500D01*
X5511800Y5537200D01*
X5511800Y7658100D01*
X5853023Y7999323D01*
X5853023Y8023860D01*
X2246375Y5930900D02*
G01*
X2247900Y5929376D01*
X2247900Y5765800D01*
X2476500Y5537200D01*
X2628900Y5537200D01*
X3213100Y5524500D02*
G01*
X3467100Y5524500D01*
X3632200Y5689600D01*
X3683000Y5740400D01*
X3683000Y6007100D01*
X3962400Y6248400D02*
G01*
X4279900Y6248400D01*
X4445000Y6413500D01*
X4445000Y6718300D01*
X4699000Y6972300D01*
X4699000Y7124700D01*
X2046224Y5930900D02*
G01*
X2262124Y6146800D01*
X2565400Y6146800D01*
X2997200Y7581900D02*
G01*
X3111500Y7696200D01*
X3187700Y7696200D01*
X3479800Y7835900D02*
G01*
X3619500Y7696200D01*
X4622800Y7696200D01*
X4711700Y7785100D01*
X4711700Y8343900D01*
X4775200Y8407400D01*
X5215483Y8407400D01*
X5345023Y8277860D01*
X2551023Y8277860D02*
G01*
X2679700Y8149183D01*
X2679700Y7899400D01*
X2717800Y7861300D01*
X3263900Y7861300D01*
X3556000Y7569200D01*
X4686300Y7569200D01*
X4826000Y7429500D01*
X3312922Y8277860D02*
G01*
X3416300Y8174481D01*
X3416300Y7785100D01*
X3556000Y7645400D01*
X4826000Y7645400D01*
X4953000Y7518400D01*
X4953000Y6794500D01*
X4826000Y6667500D01*
X3378200Y7670800D02*
G01*
X3556000Y7493000D01*
X3556000Y7429500D01*
D14*
G01*
X6974357Y7412405D03*
G36*
X1464287Y8094598D02*
G01*
X1605765Y8094598D01*
X1605765Y7953120D01*
X1464287Y7953120D01*
G37*
G01*
X1789023Y8023860D03*
G01*
X2043023Y8023860D03*
G01*
X2297023Y8023860D03*
G01*
X2551023Y8023860D03*
G01*
X2805023Y8023860D03*
G01*
X1535023Y8277860D03*
G01*
X1789023Y8277860D03*
G01*
X2043023Y8277860D03*
G01*
X2297023Y8277860D03*
G01*
X2551023Y8277860D03*
G01*
X2805023Y8277860D03*
G01*
X3059023Y8023860D03*
G01*
X3059023Y8277860D03*
G01*
X3313023Y8023860D03*
G01*
X3567023Y8023860D03*
G01*
X3821023Y8023860D03*
G01*
X4075023Y8023860D03*
G01*
X4329023Y8023860D03*
G01*
X4583023Y8023860D03*
G01*
X3313023Y8277860D03*
G01*
X3567023Y8277860D03*
G01*
X3821023Y8277860D03*
G01*
X4075023Y8277860D03*
G01*
X4329023Y8277860D03*
G01*
X4583023Y8277860D03*
G01*
X4837023Y8023860D03*
G01*
X4837023Y8277860D03*
G01*
X5091023Y8023860D03*
G01*
X5345023Y8023860D03*
G01*
X5599023Y8023860D03*
G01*
X5853023Y8023860D03*
G01*
X6107023Y8023860D03*
G01*
X6361023Y8023860D03*
G01*
X5091023Y8277860D03*
G01*
X5345023Y8277860D03*
G01*
X5599023Y8277860D03*
G01*
X5853023Y8277860D03*
G01*
X6107023Y8277860D03*
G01*
X6361023Y8277860D03*
G36*
X6639608Y7737139D02*
G01*
X6781086Y7737139D01*
X6781086Y7595661D01*
X6639608Y7595661D01*
G37*
G01*
X6974357Y7666405D03*
G01*
X6720357Y7412405D03*
D16*
G01*
X1646301Y7454900D03*
G01*
X1846326Y7454900D03*
G01*
X2046224Y7454900D03*
G01*
X2246375Y7454900D03*
G01*
X2446274Y7454900D03*
G01*
X2646425Y7454900D03*
G01*
X1646301Y6692900D03*
G01*
X1846326Y6692900D03*
G01*
X2046224Y6692900D03*
G01*
X2246375Y6692900D03*
G01*
X2446274Y6692900D03*
G01*
X2646425Y6692900D03*
G01*
X1646301Y5930900D03*
G01*
X1846326Y5930900D03*
G01*
X2046224Y5930900D03*
G01*
X2246375Y5930900D03*
G01*
X2446274Y5930900D03*
G01*
X2646425Y5930900D03*
G01*
X1646301Y5168900D03*
G01*
X1846326Y5168900D03*
G01*
X2046224Y5168900D03*
G01*
X2246375Y5168900D03*
G01*
X2446274Y5168900D03*
G01*
X2646425Y5168900D03*
D17*
G01*
X6172200Y4737100D03*
G01*
X5410200Y4737100D03*
G01*
X6172200Y4337050D03*
G01*
X5410200Y4337050D03*
G01*
X6172200Y3937000D03*
G01*
X5410200Y3937000D03*
D18*
G01*
X3302000Y6667500D03*
G01*
X3556000Y6667500D03*
G01*
X3810000Y6667500D03*
G01*
X4064000Y6667500D03*
G01*
X4318000Y6667500D03*
G01*
X4572000Y6667500D03*
G01*
X4826000Y6667500D03*
G01*
X5080000Y6667500D03*
G01*
X5080000Y7429500D03*
G01*
X4826000Y7429500D03*
G01*
X4572000Y7429500D03*
G01*
X4318000Y7429500D03*
G01*
X4064000Y7429500D03*
G01*
X3810000Y7429500D03*
G01*
X3556000Y7429500D03*
G01*
X3302000Y7429500D03*
G01*
X3302000Y5168900D03*
G01*
X3556000Y5168900D03*
G01*
X3810000Y5168900D03*
G01*
X4064000Y5168900D03*
G01*
X4318000Y5168900D03*
G01*
X4572000Y5168900D03*
G01*
X4826000Y5168900D03*
G01*
X5080000Y5168900D03*
G01*
X5080000Y5930900D03*
G01*
X4826000Y5930900D03*
G01*
X4572000Y5930900D03*
G01*
X4318000Y5930900D03*
G01*
X4064000Y5930900D03*
G01*
X3810000Y5930900D03*
G01*
X3556000Y5930900D03*
G01*
X3302000Y5930900D03*
G36*
X1451863Y4404105D02*
G01*
X1951736Y4404105D01*
X1951736Y4054094D01*
X1451863Y4054094D01*
G37*
G36*
X1451863Y3667505D02*
G01*
X1951736Y3667505D01*
X1951736Y3317494D01*
X1451863Y3317494D01*
G37*
G36*
X4588763Y3667505D02*
G01*
X5088636Y3667505D01*
X5088636Y3317494D01*
X4588763Y3317494D01*
G37*
G36*
X4588763Y4404105D02*
G01*
X5088636Y4404105D01*
X5088636Y4054094D01*
X4588763Y4054094D01*
G37*
D12*
G01*
X4191000Y4470400D03*
D13*
G01*
X3683000Y4533900D03*
G01*
X5549900Y5295900D03*
G01*
X5676900Y5422900D03*
G01*
X2933700Y7950200D03*
G01*
X2933700Y6870700D03*
G01*
X3060700Y6134100D03*
G01*
X3136900Y5880100D03*
G01*
X4737100Y5740400D03*
G01*
X4229100Y5740400D03*
G01*
X3949700Y5740400D03*
G01*
X3606800Y7797800D03*
G01*
X3225800Y7620000D03*
G01*
X2781300Y7175500D03*
G01*
X2514600Y6908800D03*
G01*
X2628900Y6921500D03*
G01*
X2870200Y7162800D03*
G01*
X3200400Y7518400D03*
G01*
X4076700Y7874000D03*
G01*
X4229100Y4673600D03*
G01*
X2628900Y5537200D03*
G01*
X3213100Y5524500D03*
G01*
X3683000Y6007100D03*
G01*
X3962400Y6248400D03*
G01*
X4699000Y7124700D03*
G01*
X2565400Y6146800D03*
G01*
X2997200Y7581900D03*
G01*
X3187700Y7696200D03*
G01*
X3479800Y7835900D03*
D20*
X6550901Y5348198D02*
G01*
X6580901Y5348198D01*
X6550901Y5148198D02*
G01*
X6580901Y5148198D01*
X6550901Y4948199D02*
G01*
X6580901Y4948199D01*
X6550901Y4748199D02*
G01*
X6580901Y4748199D01*
X6550901Y4548200D02*
G01*
X6580901Y4548200D01*
X6550901Y4348200D02*
G01*
X6580901Y4348200D01*
X6550901Y4148201D02*
G01*
X6580901Y4148201D01*
X6550901Y3948201D02*
G01*
X6580901Y3948201D01*
M02*
