G04 Layer: BottomSilkscreenLayer*
G04 EasyEDA v6.4.31, 2022-02-22 11:53:35*
G04 0e17b504a1c74eaf9c4f321eb8a460b9,d16b5419f4934f6baf9a23abf8230603,10*
G04 Gerber Generator version 0.2*
G04 Scale: 100 percent, Rotated: No, Reflected: No *
G04 Dimensions in millimeters *
G04 leading zeros omitted , absolute positions ,4 integer and 5 decimal *
%FSLAX45Y45*%
%MOMM*%

%ADD10C,0.2540*%
%ADD21C,0.1524*%
%ADD22C,0.1501*%

%LPD*%
D21*
X3949700Y8649715D02*
G01*
X3949700Y8571737D01*
X3944620Y8556244D01*
X3934206Y8545829D01*
X3918458Y8540750D01*
X3908043Y8540750D01*
X3892550Y8545829D01*
X3882136Y8556244D01*
X3877056Y8571737D01*
X3877056Y8649715D01*
X3842765Y8628887D02*
G01*
X3832352Y8634221D01*
X3816604Y8649715D01*
X3816604Y8540750D01*
X1487919Y7825488D02*
G01*
X1481061Y7829044D01*
X1470647Y7839458D01*
X1470647Y7766560D01*
X6444741Y7839455D02*
G01*
X6406641Y7839455D01*
X6427470Y7811770D01*
X6417056Y7811770D01*
X6409943Y7808213D01*
X6406641Y7804658D01*
X6403086Y7794244D01*
X6403086Y7787386D01*
X6406641Y7776971D01*
X6413500Y7770113D01*
X6423913Y7766558D01*
X6434327Y7766558D01*
X6444741Y7770113D01*
X6448043Y7773670D01*
X6451600Y7780528D01*
X6335268Y7815071D02*
G01*
X6338570Y7804658D01*
X6345681Y7797800D01*
X6356095Y7794244D01*
X6359397Y7794244D01*
X6369811Y7797800D01*
X6376670Y7804658D01*
X6380225Y7815071D01*
X6380225Y7818628D01*
X6376670Y7829042D01*
X6369811Y7835900D01*
X6359397Y7839455D01*
X6356095Y7839455D01*
X6345681Y7835900D01*
X6338570Y7829042D01*
X6335268Y7815071D01*
X6335268Y7797800D01*
X6338570Y7780528D01*
X6345681Y7770113D01*
X6356095Y7766558D01*
X6362954Y7766558D01*
X6373368Y7770113D01*
X6376670Y7776971D01*
X2832100Y7825486D02*
G01*
X2825241Y7829042D01*
X2814827Y7839455D01*
X2814827Y7766558D01*
X2791968Y7825486D02*
G01*
X2785109Y7829042D01*
X2774695Y7839455D01*
X2774695Y7766558D01*
X4115803Y7821932D02*
G01*
X4115803Y7825488D01*
X4112501Y7832346D01*
X4108945Y7835902D01*
X4102087Y7839458D01*
X4088117Y7839458D01*
X4081259Y7835902D01*
X4077703Y7832346D01*
X4074401Y7825488D01*
X4074401Y7818630D01*
X4077703Y7811772D01*
X4084815Y7801358D01*
X4119359Y7766560D01*
X4070845Y7766560D01*
X4047985Y7825488D02*
G01*
X4041127Y7829044D01*
X4030713Y7839458D01*
X4030713Y7766560D01*
X5378919Y7839455D02*
G01*
X5340819Y7839455D01*
X5361647Y7811770D01*
X5351233Y7811770D01*
X5344121Y7808213D01*
X5340819Y7804658D01*
X5337263Y7794244D01*
X5337263Y7787386D01*
X5340819Y7776971D01*
X5347677Y7770113D01*
X5358091Y7766558D01*
X5368505Y7766558D01*
X5378919Y7770113D01*
X5382221Y7773670D01*
X5385777Y7780528D01*
X5314403Y7825486D02*
G01*
X5307545Y7829042D01*
X5297131Y7839455D01*
X5297131Y7766558D01*
D22*
X6946887Y7201395D02*
G01*
X6946887Y7128751D01*
X6946887Y7201395D02*
G01*
X6915899Y7201395D01*
X6905485Y7197839D01*
X6901929Y7194537D01*
X6898627Y7187679D01*
X6898627Y7177265D01*
X6901929Y7170407D01*
X6905485Y7166851D01*
X6915899Y7163295D01*
X6946887Y7163295D01*
X6854939Y7201395D02*
G01*
X6861797Y7197839D01*
X6868909Y7190981D01*
X6872211Y7184123D01*
X6875767Y7173709D01*
X6875767Y7156437D01*
X6872211Y7146023D01*
X6868909Y7139165D01*
X6861797Y7132307D01*
X6854939Y7128751D01*
X6841223Y7128751D01*
X6834365Y7132307D01*
X6827253Y7139165D01*
X6823951Y7146023D01*
X6820395Y7156437D01*
X6820395Y7173709D01*
X6823951Y7184123D01*
X6827253Y7190981D01*
X6834365Y7197839D01*
X6841223Y7201395D01*
X6854939Y7201395D01*
X6797789Y7201395D02*
G01*
X6797789Y7128751D01*
X6797789Y7201395D02*
G01*
X6752831Y7201395D01*
X6797789Y7166851D02*
G01*
X6770103Y7166851D01*
X6797789Y7128751D02*
G01*
X6752831Y7128751D01*
D10*
X6597246Y7277100D02*
G01*
X7105246Y7277100D01*
X6597246Y7785100D02*
G01*
X6597246Y7277100D01*
X6597246Y7785100D02*
G01*
X7092711Y7790548D01*
X7105246Y7785100D02*
G01*
X7105246Y7277100D01*
X3948026Y8300720D02*
G01*
X3948026Y8001000D01*
X3795626Y8150860D02*
G01*
X4097886Y8150860D01*
X696826Y8201660D02*
G01*
X696826Y4442460D01*
X996546Y2900679D02*
G01*
X7195822Y2900476D01*
X7195822Y2900476D02*
G01*
X7195822Y8501456D01*
X7195822Y8501379D02*
G01*
X996546Y8501379D01*
X4773526Y7896860D02*
G01*
X4710026Y7960360D01*
X4646526Y7896860D01*
X4519526Y7896860D01*
X4456026Y7960360D01*
X4392526Y7896860D01*
X4265526Y7896860D01*
X4202026Y7960360D01*
X4138526Y7896860D01*
X4011526Y7896860D01*
X3948026Y7960360D01*
X3884526Y7896860D01*
X3757526Y7896860D01*
X3694026Y7960360D01*
X3630526Y7896860D01*
X3503526Y7896860D01*
X3440026Y7960360D01*
X3376526Y7896860D01*
X3249526Y7896860D01*
X3186026Y7960360D01*
X3122526Y7896860D01*
X2995526Y7896860D01*
X2932026Y7960360D01*
X2868526Y7896860D01*
X2741526Y7896860D01*
X2678026Y7960360D01*
X2614526Y7896860D01*
X2487526Y7896860D01*
X2424026Y7960360D01*
X2360526Y7896860D01*
X2233526Y7896860D01*
X2170026Y7960360D01*
X2106526Y7896860D01*
X1979526Y7896860D01*
X1916026Y7960360D01*
X1852526Y7896860D01*
X1725526Y7896860D01*
X1662026Y7960360D01*
X1598526Y7896860D01*
X1471526Y7896860D01*
X1408026Y7960360D01*
X1408026Y8341360D01*
X1471526Y8404860D01*
X1598526Y8404860D01*
X1662026Y8341360D01*
X1725526Y8404860D01*
X1852526Y8404860D01*
X1916026Y8341360D01*
X1979526Y8404860D01*
X2106526Y8404860D01*
X2170026Y8341360D01*
X2233526Y8404860D01*
X2360526Y8404860D01*
X2424026Y8341360D01*
X2487526Y8404860D01*
X2614526Y8404860D01*
X2678026Y8341360D01*
X2741526Y8404860D01*
X2868526Y8404860D01*
X2932026Y8341360D01*
X2995526Y8404860D01*
X3122526Y8404860D01*
X3186026Y8341360D01*
X3249526Y8404860D01*
X3376526Y8404860D01*
X3440026Y8341360D01*
X3503526Y8404860D01*
X3630526Y8404860D01*
X3694026Y8341360D01*
X3757526Y8404860D01*
X3884526Y8404860D01*
X3948026Y8341360D01*
X4011526Y8404860D01*
X4138526Y8404860D01*
X4202026Y8341360D01*
X4265526Y8404860D01*
X4392526Y8404860D01*
X4456026Y8341360D01*
X4519526Y8404860D01*
X4646526Y8404860D01*
X4710026Y8341360D01*
X4773526Y8404860D01*
X4900526Y8404860D01*
X4964026Y8341360D01*
X5027526Y8404860D01*
X5154526Y8404860D01*
X5218026Y8341360D01*
X5281526Y8404860D01*
X5408526Y8404860D01*
X5472026Y8341360D01*
X5535526Y8404860D01*
X5662526Y8404860D01*
X5726026Y8341360D01*
X5789526Y8404860D01*
X5916526Y8404860D01*
X5980026Y8341360D01*
X6043526Y8404860D01*
X6170526Y8404860D01*
X6234026Y8341360D01*
X6297526Y8404860D01*
X6424526Y8404860D01*
X6488026Y8341360D01*
X6488026Y7960360D01*
X6424526Y7896860D01*
X6297526Y7896860D01*
X6234026Y7960360D01*
X6170526Y7896860D01*
X6043526Y7896860D01*
X5980026Y7960360D01*
X5916526Y7896860D01*
X5789526Y7896860D01*
X5726026Y7960360D01*
X5662526Y7896860D01*
X5535526Y7896860D01*
X5472026Y7960360D01*
X5408526Y7896860D01*
X5281526Y7896860D01*
X5218026Y7960360D01*
X5154526Y7896860D01*
X5027526Y7896860D01*
X4964026Y7960360D01*
X4900526Y7896860D01*
X4773526Y7896860D01*
X696826Y4506468D02*
G01*
X696826Y3680460D01*
X696826Y3172460D01*
G75*
G01*
X696826Y3200679D02*
G03*
X996826Y2900680I300000J0D01*
G75*
G01*
X996826Y8500669D02*
G03*
X696826Y8200669I0J-300000D01*
G75*
G01
X1357478Y8153400D02*
G03X1357478Y8153400I-310134J0D01*
G75*
G01
X7148678Y8153400D02*
G03X7148678Y8153400I-310134J0D01*
G75*
G01
X7148678Y3251200D02*
G03X7148678Y3251200I-310134J0D01*
G75*
G01
X1357478Y3251200D02*
G03X1357478Y3251200I-310134J0D01*
M02*
