G04 Layer: BottomSolderMaskLayer*
G04 EasyEDA v6.4.31, 2022-02-22 11:53:35*
G04 0e17b504a1c74eaf9c4f321eb8a460b9,d16b5419f4934f6baf9a23abf8230603,10*
G04 Gerber Generator version 0.2*
G04 Scale: 100 percent, Rotated: No, Reflected: No *
G04 Dimensions in millimeters *
G04 leading zeros omitted , absolute positions ,4 integer and 5 decimal *
%FSLAX45Y45*%
%MOMM*%

%ADD23C,1.3032*%
%ADD24C,1.6180*%
%ADD26C,1.7032*%
%ADD27C,1.9812*%
%ADD28C,1.7016*%

%LPD*%
D23*
X6550901Y5348198D02*
G01*
X6580901Y5348198D01*
X6550901Y5148198D02*
G01*
X6580901Y5148198D01*
X6550901Y4948199D02*
G01*
X6580901Y4948199D01*
X6550901Y4748199D02*
G01*
X6580901Y4748199D01*
X6550901Y4548200D02*
G01*
X6580901Y4548200D01*
X6550901Y4348200D02*
G01*
X6580901Y4348200D01*
X6550901Y4148201D02*
G01*
X6580901Y4148201D01*
X6550901Y3948201D02*
G01*
X6580901Y3948201D01*
D24*
G01*
X6974357Y7412405D03*
G36*
X1454150Y7942834D02*
G01*
X1454150Y8104631D01*
X1615947Y8104631D01*
X1615947Y7942834D01*
G37*
G01*
X1789023Y8023860D03*
G01*
X2043023Y8023860D03*
G01*
X2297023Y8023860D03*
G01*
X2551023Y8023860D03*
G01*
X2805023Y8023860D03*
G01*
X1535023Y8277860D03*
G01*
X1789023Y8277860D03*
G01*
X2043023Y8277860D03*
G01*
X2297023Y8277860D03*
G01*
X2551023Y8277860D03*
G01*
X2805023Y8277860D03*
G01*
X3059023Y8023860D03*
G01*
X3059023Y8277860D03*
G01*
X3313023Y8023860D03*
G01*
X3567023Y8023860D03*
G01*
X3821023Y8023860D03*
G01*
X4075023Y8023860D03*
G01*
X4329023Y8023860D03*
G01*
X4583023Y8023860D03*
G01*
X3313023Y8277860D03*
G01*
X3567023Y8277860D03*
G01*
X3821023Y8277860D03*
G01*
X4075023Y8277860D03*
G01*
X4329023Y8277860D03*
G01*
X4583023Y8277860D03*
G01*
X4837023Y8023860D03*
G01*
X4837023Y8277860D03*
G01*
X5091023Y8023860D03*
G01*
X5345023Y8023860D03*
G01*
X5599023Y8023860D03*
G01*
X5853023Y8023860D03*
G01*
X6107023Y8023860D03*
G01*
X6361023Y8023860D03*
G01*
X5091023Y8277860D03*
G01*
X5345023Y8277860D03*
G01*
X5599023Y8277860D03*
G01*
X5853023Y8277860D03*
G01*
X6107023Y8277860D03*
G01*
X6361023Y8277860D03*
G36*
X6629400Y7585455D02*
G01*
X6629400Y7747254D01*
X6791197Y7747254D01*
X6791197Y7585455D01*
G37*
G01*
X6974357Y7666405D03*
G01*
X6720357Y7412405D03*
D26*
G01*
X1646301Y7454900D03*
G01*
X1846326Y7454900D03*
G01*
X2046224Y7454900D03*
G01*
X2246375Y7454900D03*
G01*
X2446274Y7454900D03*
G01*
X2646425Y7454900D03*
G01*
X1646301Y6692900D03*
G01*
X1846326Y6692900D03*
G01*
X2046224Y6692900D03*
G01*
X2246375Y6692900D03*
G01*
X2446274Y6692900D03*
G01*
X2646425Y6692900D03*
G01*
X1646301Y5930900D03*
G01*
X1846326Y5930900D03*
G01*
X2046224Y5930900D03*
G01*
X2246375Y5930900D03*
G01*
X2446274Y5930900D03*
G01*
X2646425Y5930900D03*
G01*
X1646301Y5168900D03*
G01*
X1846326Y5168900D03*
G01*
X2046224Y5168900D03*
G01*
X2246375Y5168900D03*
G01*
X2446274Y5168900D03*
G01*
X2646425Y5168900D03*
D27*
G01*
X6172200Y4737100D03*
G01*
X5410200Y4737100D03*
G01*
X6172200Y4337050D03*
G01*
X5410200Y4337050D03*
G01*
X6172200Y3937000D03*
G01*
X5410200Y3937000D03*
D28*
G01*
X3302000Y6667500D03*
G01*
X3556000Y6667500D03*
G01*
X3810000Y6667500D03*
G01*
X4064000Y6667500D03*
G01*
X4318000Y6667500D03*
G01*
X4572000Y6667500D03*
G01*
X4826000Y6667500D03*
G01*
X5080000Y6667500D03*
G01*
X5080000Y7429500D03*
G01*
X4826000Y7429500D03*
G01*
X4572000Y7429500D03*
G01*
X4318000Y7429500D03*
G01*
X4064000Y7429500D03*
G01*
X3810000Y7429500D03*
G01*
X3556000Y7429500D03*
G01*
X3302000Y7429500D03*
G01*
X3302000Y5168900D03*
G01*
X3556000Y5168900D03*
G01*
X3810000Y5168900D03*
G01*
X4064000Y5168900D03*
G01*
X4318000Y5168900D03*
G01*
X4572000Y5168900D03*
G01*
X4826000Y5168900D03*
G01*
X5080000Y5168900D03*
G01*
X5080000Y5930900D03*
G01*
X4826000Y5930900D03*
G01*
X4572000Y5930900D03*
G01*
X4318000Y5930900D03*
G01*
X4064000Y5930900D03*
G01*
X3810000Y5930900D03*
G01*
X3556000Y5930900D03*
G01*
X3302000Y5930900D03*
G36*
X1441704Y4043934D02*
G01*
X1441704Y4414265D01*
X1961895Y4414265D01*
X1961895Y4043934D01*
G37*
G36*
X1441704Y3307334D02*
G01*
X1441704Y3677665D01*
X1961895Y3677665D01*
X1961895Y3307334D01*
G37*
G36*
X4578604Y3307334D02*
G01*
X4578604Y3677665D01*
X5098795Y3677665D01*
X5098795Y3307334D01*
G37*
G36*
X4578604Y4043934D02*
G01*
X4578604Y4414265D01*
X5098795Y4414265D01*
X5098795Y4043934D01*
G37*
M02*
