G04 Layer: TopLayer*
G04 EasyEDA v6.4.31, 2022-02-22 11:53:35*
G04 0e17b504a1c74eaf9c4f321eb8a460b9,d16b5419f4934f6baf9a23abf8230603,10*
G04 Gerber Generator version 0.2*
G04 Scale: 100 percent, Rotated: No, Reflected: No *
G04 Dimensions in millimeters *
G04 leading zeros omitted , absolute positions ,4 integer and 5 decimal *
%FSLAX45Y45*%
%MOMM*%

%ADD10C,0.2540*%
%ADD11C,0.2032*%
%ADD12C,0.6010*%
%ADD13C,0.6096*%
%ADD14C,1.4148*%
%ADD16C,1.5000*%
%ADD17C,1.8796*%
%ADD18C,1.6000*%
%ADD20C,1.1000*%

%LPD*%
D11*
X6262877Y7505700D02*
G01*
X6069075Y7431786D01*
X6262877Y7357871D02*
G01*
X6069075Y7431786D01*
X6262877Y7241539D02*
G01*
X6253734Y7269226D01*
X6226047Y7287768D01*
X6179820Y7296912D01*
X6152134Y7296912D01*
X6105906Y7287768D01*
X6078220Y7269226D01*
X6069075Y7241539D01*
X6069075Y7222997D01*
X6078220Y7195312D01*
X6105906Y7176770D01*
X6152134Y7167626D01*
X6179820Y7167626D01*
X6226047Y7176770D01*
X6253734Y7195312D01*
X6262877Y7222997D01*
X6262877Y7241539D01*
X6115050Y7097521D02*
G01*
X6105906Y7106665D01*
X6096761Y7097521D01*
X6105906Y7088123D01*
X6115050Y7097521D01*
X6235191Y6916420D02*
G01*
X6253734Y6925563D01*
X6262877Y6953250D01*
X6262877Y6971792D01*
X6253734Y6999478D01*
X6226047Y7018020D01*
X6179820Y7027163D01*
X6133591Y7027163D01*
X6096761Y7018020D01*
X6078220Y6999478D01*
X6069075Y6971792D01*
X6069075Y6962647D01*
X6078220Y6934962D01*
X6096761Y6916420D01*
X6124447Y6907276D01*
X6133591Y6907276D01*
X6161277Y6916420D01*
X6179820Y6934962D01*
X6188963Y6962647D01*
X6188963Y6971792D01*
X6179820Y6999478D01*
X6161277Y7018020D01*
X6133591Y7027163D01*
X5983477Y7493000D02*
G01*
X5789675Y7493000D01*
X5983477Y7493000D02*
G01*
X5983477Y7409942D01*
X5974334Y7382255D01*
X5965190Y7372858D01*
X5946647Y7363713D01*
X5928106Y7363713D01*
X5909563Y7372858D01*
X5900420Y7382255D01*
X5891275Y7409942D01*
X5891275Y7493000D02*
G01*
X5891275Y7409942D01*
X5881877Y7382255D01*
X5872734Y7372858D01*
X5854191Y7363713D01*
X5826506Y7363713D01*
X5807963Y7372858D01*
X5798820Y7382255D01*
X5789675Y7409942D01*
X5789675Y7493000D01*
X5863590Y7302754D02*
G01*
X5863590Y7192010D01*
X5881877Y7192010D01*
X5900420Y7201154D01*
X5909563Y7210297D01*
X5918961Y7228839D01*
X5918961Y7256526D01*
X5909563Y7275068D01*
X5891275Y7293610D01*
X5863590Y7302754D01*
X5845047Y7302754D01*
X5817361Y7293610D01*
X5798820Y7275068D01*
X5789675Y7256526D01*
X5789675Y7228839D01*
X5798820Y7210297D01*
X5817361Y7192010D01*
X5863590Y7131050D02*
G01*
X5863590Y7020052D01*
X5881877Y7020052D01*
X5900420Y7029450D01*
X5909563Y7038594D01*
X5918961Y7057136D01*
X5918961Y7084821D01*
X5909563Y7103110D01*
X5891275Y7121652D01*
X5863590Y7131050D01*
X5845047Y7131050D01*
X5817361Y7121652D01*
X5798820Y7103110D01*
X5789675Y7084821D01*
X5789675Y7057136D01*
X5798820Y7038594D01*
X5817361Y7020052D01*
X5983477Y6959092D02*
G01*
X5789675Y6959092D01*
X5983477Y6959092D02*
G01*
X5983477Y6838950D01*
X5891275Y6959092D02*
G01*
X5891275Y6885178D01*
X5983477Y6777989D02*
G01*
X5789675Y6777989D01*
X5918961Y6671055D02*
G01*
X5909563Y6689344D01*
X5891275Y6707886D01*
X5863590Y6717029D01*
X5845047Y6717029D01*
X5817361Y6707886D01*
X5798820Y6689344D01*
X5789675Y6671055D01*
X5789675Y6643370D01*
X5798820Y6624828D01*
X5817361Y6606286D01*
X5845047Y6597142D01*
X5863590Y6597142D01*
X5891275Y6606286D01*
X5909563Y6624828D01*
X5918961Y6643370D01*
X5918961Y6671055D01*
X5918961Y6536181D02*
G01*
X5789675Y6499097D01*
X5918961Y6462268D02*
G01*
X5789675Y6499097D01*
X5918961Y6462268D02*
G01*
X5789675Y6425184D01*
X5918961Y6388354D02*
G01*
X5789675Y6425184D01*
X5863590Y6327394D02*
G01*
X5863590Y6216650D01*
X5881877Y6216650D01*
X5900420Y6225794D01*
X5909563Y6234937D01*
X5918961Y6253479D01*
X5918961Y6281165D01*
X5909563Y6299707D01*
X5891275Y6318250D01*
X5863590Y6327394D01*
X5845047Y6327394D01*
X5817361Y6318250D01*
X5798820Y6299707D01*
X5789675Y6281165D01*
X5789675Y6253479D01*
X5798820Y6234937D01*
X5817361Y6216650D01*
X5918961Y6155689D02*
G01*
X5789675Y6155689D01*
X5863590Y6155689D02*
G01*
X5891275Y6146292D01*
X5909563Y6127750D01*
X5918961Y6109462D01*
X5918961Y6081776D01*
X5872734Y6020815D02*
G01*
X5872734Y5854445D01*
X5983477Y5793486D02*
G01*
X5789675Y5793486D01*
X5789675Y5793486D02*
G01*
X5789675Y5682742D01*
X5937250Y5612384D02*
G01*
X5946647Y5612384D01*
X5965190Y5603239D01*
X5974334Y5594095D01*
X5983477Y5575554D01*
X5983477Y5538470D01*
X5974334Y5520181D01*
X5965190Y5510784D01*
X5946647Y5501639D01*
X5928106Y5501639D01*
X5909563Y5510784D01*
X5881877Y5529326D01*
X5789675Y5621781D01*
X5789675Y5492495D01*
X5918961Y5311394D02*
G01*
X5891275Y5320537D01*
X5872734Y5339079D01*
X5863590Y5366765D01*
X5863590Y5375910D01*
X5872734Y5403850D01*
X5891275Y5422137D01*
X5918961Y5431536D01*
X5928106Y5431536D01*
X5955791Y5422137D01*
X5974334Y5403850D01*
X5983477Y5375910D01*
X5983477Y5366765D01*
X5974334Y5339079D01*
X5955791Y5320537D01*
X5918961Y5311394D01*
X5872734Y5311394D01*
X5826506Y5320537D01*
X5798820Y5339079D01*
X5789675Y5366765D01*
X5789675Y5385307D01*
X5798820Y5412994D01*
X5817361Y5422137D01*
X5983477Y5231892D02*
G01*
X5983477Y5130292D01*
X5909563Y5185663D01*
X5909563Y5157978D01*
X5900420Y5139689D01*
X5891275Y5130292D01*
X5863590Y5121147D01*
X5845047Y5121147D01*
X5817361Y5130292D01*
X5798820Y5148834D01*
X5789675Y5176520D01*
X5789675Y5204205D01*
X5798820Y5231892D01*
X5807963Y5241289D01*
X5826506Y5250434D01*
X5983477Y5060187D02*
G01*
X5789675Y5060187D01*
X5983477Y5060187D02*
G01*
X5983477Y4995418D01*
X5974334Y4967731D01*
X5955791Y4949189D01*
X5937250Y4940045D01*
X5909563Y4930902D01*
X5863590Y4930902D01*
X5835650Y4940045D01*
X5817361Y4949189D01*
X5798820Y4967731D01*
X5789675Y4995418D01*
X5789675Y5060187D01*
D10*
X1846326Y7454900D02*
G01*
X1846326Y6692900D01*
X1846326Y6692900D02*
G01*
X1846326Y5930900D01*
X1846326Y5930900D02*
G01*
X1846326Y5168900D01*
X4064000Y7429500D02*
G01*
X4318000Y7429500D01*
X4064000Y5930900D02*
G01*
X4318000Y5930900D01*
X4064000Y5168900D02*
G01*
X4318000Y5168900D01*
X4064000Y6667500D02*
G01*
X4318000Y6667500D01*
X4064000Y6667500D02*
G01*
X4064000Y5930900D01*
X4064000Y5930900D02*
G01*
X4064000Y5168900D01*
X4318000Y5168900D02*
G01*
X4318000Y4013200D01*
X4838700Y3492500D01*
X4064000Y7429500D02*
G01*
X4064000Y6667500D01*
X2043023Y8277860D02*
G01*
X1930400Y8165236D01*
X1930400Y7810500D01*
X1846326Y7726426D01*
X1846326Y7454900D01*
X5080000Y7429500D02*
G01*
X5232400Y7277100D01*
X5232400Y6096000D01*
X5080000Y5943600D01*
X5080000Y5930900D01*
X3302000Y7429500D02*
G01*
X3302000Y6667500D01*
X3302000Y5930900D02*
G01*
X3302000Y5168900D01*
X3302000Y6667500D02*
G01*
X3302000Y5930900D01*
X1846326Y5168900D02*
G01*
X2019300Y4995926D01*
X2019300Y3771900D01*
X1739900Y3492500D01*
X1701800Y3492500D01*
X4838700Y4229100D02*
G01*
X5232400Y4622800D01*
X5232400Y5778500D01*
X5080000Y5930900D01*
X6172200Y3937000D02*
G01*
X6183401Y3948201D01*
X6565900Y3948201D01*
X6565900Y3948201D02*
G01*
X6565900Y4148201D01*
X6172200Y4337050D02*
G01*
X6183350Y4348200D01*
X6565900Y4348200D01*
X6565900Y4348200D02*
G01*
X6565900Y4548200D01*
X6172200Y4737100D02*
G01*
X6183299Y4748199D01*
X6565900Y4748199D01*
X6565900Y4748199D02*
G01*
X6565900Y4948199D01*
X6565900Y5148198D02*
G01*
X6565900Y5348198D01*
X6565900Y5348198D02*
G01*
X6553200Y5360898D01*
X6553200Y7734300D01*
X6361023Y7926476D01*
X6361023Y8023860D01*
X5410200Y4737100D02*
G01*
X5295900Y4851400D01*
X5295900Y7543800D01*
X5091023Y7748676D01*
X5091023Y8023860D01*
X5410200Y4337050D02*
G01*
X5588000Y4514850D01*
X5588000Y4876800D01*
X5372100Y5092700D01*
X5372100Y7810500D01*
X5345023Y7837576D01*
X5345023Y8023860D01*
X5410200Y3937000D02*
G01*
X5715000Y4241800D01*
X5715000Y4940300D01*
X5448300Y5207000D01*
X5448300Y7759700D01*
X5599023Y7910423D01*
X5599023Y8023860D01*
X2446274Y7454900D02*
G01*
X2446274Y6692900D01*
X2446274Y6692900D02*
G01*
X2446274Y5930900D01*
X2446274Y5930900D02*
G01*
X2446274Y5168900D01*
X2046224Y7454900D02*
G01*
X2171700Y7580376D01*
X2171700Y8318500D01*
X2273300Y8420100D01*
X3390900Y8420100D01*
X3533140Y8277860D01*
X3566922Y8277860D01*
X4064000Y7429500D02*
G01*
X4191000Y7556500D01*
X4191000Y8343900D01*
X4064000Y8470900D01*
X2197100Y8470900D01*
X2042922Y8316721D01*
X2042922Y8277860D01*
X2246375Y7454900D02*
G01*
X2425700Y7634223D01*
X2425700Y8089900D01*
X2501900Y8166100D01*
X3886200Y8166100D01*
X3997959Y8277860D01*
X4075023Y8277860D01*
X2246373Y5168900D02*
G01*
X2247900Y5167373D01*
X2247900Y4686300D01*
X2400300Y4533900D01*
X3683000Y4533900D01*
X2046224Y5168900D02*
G01*
X2108200Y5106923D01*
X2108200Y4597400D01*
X2247900Y4457700D01*
X4191000Y4457700D01*
X4191000Y4470400D01*
X5549900Y5295900D02*
G01*
X5676900Y5422900D01*
X3059023Y8023860D02*
G01*
X3060700Y8022183D01*
X3060700Y6134100D01*
X5080000Y5168900D02*
G01*
X4953000Y5295900D01*
X4953000Y6527800D01*
X5080000Y6654800D01*
X5080000Y6667500D01*
X4737100Y5740400D02*
G01*
X4229100Y5740400D01*
X3949700Y5740400D02*
G01*
X3403600Y5740400D01*
X3302000Y5842000D01*
X3302000Y5930900D01*
X3609444Y7795155D02*
G01*
X3431644Y7617355D01*
X3228444Y7617355D01*
X2933700Y7943850D02*
G01*
X2933700Y6864350D01*
X2781300Y7175500D02*
G01*
X2514600Y6908800D01*
X2628900Y6921500D02*
G01*
X2870200Y7162800D01*
X3200400Y7518400D02*
G01*
X3238500Y7556500D01*
X3327400Y7556500D01*
X3467100Y7556500D01*
X3695700Y7785100D01*
X3784600Y7874000D01*
X4076700Y7874000D01*
X3556000Y5168900D02*
G01*
X4051300Y4673600D01*
X4229100Y4673600D01*
X2628900Y5537200D02*
G01*
X2641600Y5524500D01*
X3213100Y5524500D01*
X3683000Y6007100D02*
G01*
X3924300Y6248400D01*
X3962400Y6248400D01*
X4699000Y7124700D02*
G01*
X4699000Y7569200D01*
X4978400Y7848600D01*
X4978400Y8089900D01*
X5041900Y8153400D01*
X5728461Y8153400D01*
X5852922Y8277860D01*
X2565400Y6146800D02*
G01*
X2806700Y6388100D01*
X2882900Y6388100D01*
X2997200Y6502400D01*
X2997200Y7543800D01*
X2997200Y7581900D01*
X3187700Y7696200D02*
G01*
X3327400Y7835900D01*
X3479800Y7835900D01*
X3312922Y8023860D02*
G01*
X3124200Y7835137D01*
X3124200Y5880100D01*
X3136900Y5880100D01*
D14*
G01*
X6974357Y7412405D03*
G36*
X1464287Y8094598D02*
G01*
X1605765Y8094598D01*
X1605765Y7953120D01*
X1464287Y7953120D01*
G37*
G01*
X1789023Y8023860D03*
G01*
X2043023Y8023860D03*
G01*
X2297023Y8023860D03*
G01*
X2551023Y8023860D03*
G01*
X2805023Y8023860D03*
G01*
X1535023Y8277860D03*
G01*
X1789023Y8277860D03*
G01*
X2043023Y8277860D03*
G01*
X2297023Y8277860D03*
G01*
X2551023Y8277860D03*
G01*
X2805023Y8277860D03*
G01*
X3059023Y8023860D03*
G01*
X3059023Y8277860D03*
G01*
X3313023Y8023860D03*
G01*
X3567023Y8023860D03*
G01*
X3821023Y8023860D03*
G01*
X4075023Y8023860D03*
G01*
X4329023Y8023860D03*
G01*
X4583023Y8023860D03*
G01*
X3313023Y8277860D03*
G01*
X3567023Y8277860D03*
G01*
X3821023Y8277860D03*
G01*
X4075023Y8277860D03*
G01*
X4329023Y8277860D03*
G01*
X4583023Y8277860D03*
G01*
X4837023Y8023860D03*
G01*
X4837023Y8277860D03*
G01*
X5091023Y8023860D03*
G01*
X5345023Y8023860D03*
G01*
X5599023Y8023860D03*
G01*
X5853023Y8023860D03*
G01*
X6107023Y8023860D03*
G01*
X6361023Y8023860D03*
G01*
X5091023Y8277860D03*
G01*
X5345023Y8277860D03*
G01*
X5599023Y8277860D03*
G01*
X5853023Y8277860D03*
G01*
X6107023Y8277860D03*
G01*
X6361023Y8277860D03*
G36*
X6639608Y7737139D02*
G01*
X6781086Y7737139D01*
X6781086Y7595661D01*
X6639608Y7595661D01*
G37*
G01*
X6974357Y7666405D03*
G01*
X6720357Y7412405D03*
D16*
G01*
X1646301Y7454900D03*
G01*
X1846326Y7454900D03*
G01*
X2046224Y7454900D03*
G01*
X2246375Y7454900D03*
G01*
X2446274Y7454900D03*
G01*
X2646425Y7454900D03*
G01*
X1646301Y6692900D03*
G01*
X1846326Y6692900D03*
G01*
X2046224Y6692900D03*
G01*
X2246375Y6692900D03*
G01*
X2446274Y6692900D03*
G01*
X2646425Y6692900D03*
G01*
X1646301Y5930900D03*
G01*
X1846326Y5930900D03*
G01*
X2046224Y5930900D03*
G01*
X2246375Y5930900D03*
G01*
X2446274Y5930900D03*
G01*
X2646425Y5930900D03*
G01*
X1646301Y5168900D03*
G01*
X1846326Y5168900D03*
G01*
X2046224Y5168900D03*
G01*
X2246375Y5168900D03*
G01*
X2446274Y5168900D03*
G01*
X2646425Y5168900D03*
D17*
G01*
X6172200Y4737100D03*
G01*
X5410200Y4737100D03*
G01*
X6172200Y4337050D03*
G01*
X5410200Y4337050D03*
G01*
X6172200Y3937000D03*
G01*
X5410200Y3937000D03*
D18*
G01*
X3302000Y6667500D03*
G01*
X3556000Y6667500D03*
G01*
X3810000Y6667500D03*
G01*
X4064000Y6667500D03*
G01*
X4318000Y6667500D03*
G01*
X4572000Y6667500D03*
G01*
X4826000Y6667500D03*
G01*
X5080000Y6667500D03*
G01*
X5080000Y7429500D03*
G01*
X4826000Y7429500D03*
G01*
X4572000Y7429500D03*
G01*
X4318000Y7429500D03*
G01*
X4064000Y7429500D03*
G01*
X3810000Y7429500D03*
G01*
X3556000Y7429500D03*
G01*
X3302000Y7429500D03*
G01*
X3302000Y5168900D03*
G01*
X3556000Y5168900D03*
G01*
X3810000Y5168900D03*
G01*
X4064000Y5168900D03*
G01*
X4318000Y5168900D03*
G01*
X4572000Y5168900D03*
G01*
X4826000Y5168900D03*
G01*
X5080000Y5168900D03*
G01*
X5080000Y5930900D03*
G01*
X4826000Y5930900D03*
G01*
X4572000Y5930900D03*
G01*
X4318000Y5930900D03*
G01*
X4064000Y5930900D03*
G01*
X3810000Y5930900D03*
G01*
X3556000Y5930900D03*
G01*
X3302000Y5930900D03*
G36*
X1451863Y4404105D02*
G01*
X1951736Y4404105D01*
X1951736Y4054094D01*
X1451863Y4054094D01*
G37*
G36*
X1451863Y3667505D02*
G01*
X1951736Y3667505D01*
X1951736Y3317494D01*
X1451863Y3317494D01*
G37*
G36*
X4588763Y3667505D02*
G01*
X5088636Y3667505D01*
X5088636Y3317494D01*
X4588763Y3317494D01*
G37*
G36*
X4588763Y4404105D02*
G01*
X5088636Y4404105D01*
X5088636Y4054094D01*
X4588763Y4054094D01*
G37*
D12*
G01*
X4191000Y4470400D03*
D13*
G01*
X3683000Y4533900D03*
G01*
X5549900Y5295900D03*
G01*
X5676900Y5422900D03*
G01*
X2933700Y7950200D03*
G01*
X2933700Y6870700D03*
G01*
X3060700Y6134100D03*
G01*
X3136900Y5880100D03*
G01*
X4737100Y5740400D03*
G01*
X4229100Y5740400D03*
G01*
X3949700Y5740400D03*
G01*
X3606800Y7797800D03*
G01*
X3225800Y7620000D03*
G01*
X2781300Y7175500D03*
G01*
X2514600Y6908800D03*
G01*
X2628900Y6921500D03*
G01*
X2870200Y7162800D03*
G01*
X3200400Y7518400D03*
G01*
X4076700Y7874000D03*
G01*
X4229100Y4673600D03*
G01*
X2628900Y5537200D03*
G01*
X3213100Y5524500D03*
G01*
X3683000Y6007100D03*
G01*
X3962400Y6248400D03*
G01*
X4699000Y7124700D03*
G01*
X2565400Y6146800D03*
G01*
X2997200Y7581900D03*
G01*
X3187700Y7696200D03*
G01*
X3479800Y7835900D03*
D20*
X6550901Y5348198D02*
G01*
X6580901Y5348198D01*
X6550901Y5148198D02*
G01*
X6580901Y5148198D01*
X6550901Y4948199D02*
G01*
X6580901Y4948199D01*
X6550901Y4748199D02*
G01*
X6580901Y4748199D01*
X6550901Y4548200D02*
G01*
X6580901Y4548200D01*
X6550901Y4348200D02*
G01*
X6580901Y4348200D01*
X6550901Y4148201D02*
G01*
X6580901Y4148201D01*
X6550901Y3948201D02*
G01*
X6580901Y3948201D01*
M02*
